<mxfile host="app.diagrams.net" agent="Mozilla/5.0 (Windows NT 10.0; Win64; x64) AppleWebKit/537.36 (KHTML, like Gecko) Chrome/137.0.0.0 Safari/537.36 Edg/137.0.0.0" version="28.1.0">
  <diagram name="第 1 页" id="1tg29GMlNuZGiP-355ic">
    <mxGraphModel dx="994" dy="606" grid="1" gridSize="10" guides="1" tooltips="1" connect="1" arrows="1" fold="1" page="1" pageScale="1" pageWidth="827" pageHeight="1169" math="0" shadow="0" adaptiveColors="none">
      <root>
        <mxCell id="0" />
        <mxCell id="1" parent="0" />
        <mxCell id="FETZFHnWCQZqlO5JsZhI-25" style="edgeStyle=orthogonalEdgeStyle;rounded=0;orthogonalLoop=1;jettySize=auto;html=1;exitX=0.5;exitY=0;exitDx=0;exitDy=0;entryX=1;entryY=0.5;entryDx=0;entryDy=0;" edge="1" parent="1" source="FETZFHnWCQZqlO5JsZhI-21" target="FETZFHnWCQZqlO5JsZhI-14">
          <mxGeometry relative="1" as="geometry" />
        </mxCell>
        <mxCell id="FETZFHnWCQZqlO5JsZhI-21" value="" style="shape=trapezoid;perimeter=trapezoidPerimeter;whiteSpace=wrap;html=1;fixedSize=1;size=17.5;rotation=-90;fillColor=#dae8fc;strokeColor=#6c8ebf;fontFamily=Source Code Pro, DejaVu Sans Mono, Ubuntu Mono, Anonymous Pro, Droid Sans Mono, Menlo, Monaco, Consolas, Inconsolata, Courier, monospace, PingFang SC, Microsoft YaHei, sans-serif;" vertex="1" parent="1">
          <mxGeometry x="470.5" y="584.25" width="63" height="35" as="geometry" />
        </mxCell>
        <mxCell id="qdz_EZVD8mXz1i7pljkY-252" value="" style="ellipse;whiteSpace=wrap;html=1;aspect=fixed;fillColor=#d5e8d4;strokeColor=#82b366;fontFamily=Source Code Pro, DejaVu Sans Mono, Ubuntu Mono, Anonymous Pro, Droid Sans Mono, Menlo, Monaco, Consolas, Inconsolata, Courier, monospace, PingFang SC, Microsoft YaHei, sans-serif;" parent="1" vertex="1">
          <mxGeometry x="244.25" y="551" width="102" height="102" as="geometry" />
        </mxCell>
        <mxCell id="qdz_EZVD8mXz1i7pljkY-93" value="&lt;font style=&quot;font-size: 16px;&quot;&gt;R&lt;sub style=&quot;&quot;&gt;0&lt;/sub&gt;&lt;/font&gt;&lt;span style=&quot;font-size: 16px;&quot;&gt;&amp;nbsp;(32)&lt;/span&gt;" style="rounded=0;whiteSpace=wrap;html=1;fontFamily=Source Code Pro, DejaVu Sans Mono, Ubuntu Mono, Anonymous Pro, Droid Sans Mono, Menlo, Monaco, Consolas, Inconsolata, Courier, monospace, PingFang SC, Microsoft YaHei, sans-serif;" parent="1" vertex="1">
          <mxGeometry x="253" y="312" width="80" height="30" as="geometry" />
        </mxCell>
        <mxCell id="qdz_EZVD8mXz1i7pljkY-94" value="&lt;font style=&quot;font-size: 16px;&quot;&gt;L&lt;sub&gt;0&lt;/sub&gt;&lt;/font&gt;&lt;span style=&quot;font-size: 16px;&quot;&gt;&amp;nbsp;(32)&lt;/span&gt;" style="rounded=0;whiteSpace=wrap;html=1;fontFamily=Source Code Pro, DejaVu Sans Mono, Ubuntu Mono, Anonymous Pro, Droid Sans Mono, Menlo, Monaco, Consolas, Inconsolata, Courier, monospace, PingFang SC, Microsoft YaHei, sans-serif;" parent="1" vertex="1">
          <mxGeometry x="133" y="312" width="80" height="30" as="geometry" />
        </mxCell>
        <mxCell id="qdz_EZVD8mXz1i7pljkY-95" value="" style="endArrow=classic;html=1;rounded=0;exitX=0.5;exitY=1;exitDx=0;exitDy=0;fontFamily=Source Code Pro, DejaVu Sans Mono, Ubuntu Mono, Anonymous Pro, Droid Sans Mono, Menlo, Monaco, Consolas, Inconsolata, Courier, monospace, PingFang SC, Microsoft YaHei, sans-serif;" parent="1" edge="1">
          <mxGeometry width="50" height="50" relative="1" as="geometry">
            <mxPoint x="293" y="342" as="sourcePoint" />
            <mxPoint x="170" y="502" as="targetPoint" />
            <Array as="points">
              <mxPoint x="293" y="352" />
              <mxPoint x="270" y="352" />
              <mxPoint x="170" y="482" />
            </Array>
          </mxGeometry>
        </mxCell>
        <mxCell id="qdz_EZVD8mXz1i7pljkY-96" value="" style="endArrow=classic;html=1;rounded=0;entryX=-0.013;entryY=0.527;entryDx=0;entryDy=0;entryPerimeter=0;exitX=0.5;exitY=1;exitDx=0;exitDy=0;fontFamily=Source Code Pro, DejaVu Sans Mono, Ubuntu Mono, Anonymous Pro, Droid Sans Mono, Menlo, Monaco, Consolas, Inconsolata, Courier, monospace, PingFang SC, Microsoft YaHei, sans-serif;" parent="1" source="qdz_EZVD8mXz1i7pljkY-94" target="qdz_EZVD8mXz1i7pljkY-100" edge="1">
          <mxGeometry width="50" height="50" relative="1" as="geometry">
            <mxPoint x="173" y="340" as="sourcePoint" />
            <mxPoint x="282.75" y="477.5" as="targetPoint" />
            <Array as="points">
              <mxPoint x="170" y="342" />
              <mxPoint x="170" y="352" />
              <mxPoint x="270" y="480" />
            </Array>
          </mxGeometry>
        </mxCell>
        <mxCell id="qdz_EZVD8mXz1i7pljkY-97" value="" style="endArrow=classic;html=1;rounded=0;entryX=0.5;entryY=0;entryDx=0;entryDy=0;fontFamily=Source Code Pro, DejaVu Sans Mono, Ubuntu Mono, Anonymous Pro, Droid Sans Mono, Menlo, Monaco, Consolas, Inconsolata, Courier, monospace, PingFang SC, Microsoft YaHei, sans-serif;" parent="1" target="qdz_EZVD8mXz1i7pljkY-147" edge="1">
          <mxGeometry width="50" height="50" relative="1" as="geometry">
            <mxPoint x="293" y="352" as="sourcePoint" />
            <mxPoint x="292.8" y="372" as="targetPoint" />
          </mxGeometry>
        </mxCell>
        <mxCell id="qdz_EZVD8mXz1i7pljkY-99" value="" style="endArrow=classic;html=1;rounded=0;entryX=0.5;entryY=0;entryDx=0;entryDy=0;entryPerimeter=0;exitX=0.5;exitY=0;exitDx=0;exitDy=0;fontFamily=Source Code Pro, DejaVu Sans Mono, Ubuntu Mono, Anonymous Pro, Droid Sans Mono, Menlo, Monaco, Consolas, Inconsolata, Courier, monospace, PingFang SC, Microsoft YaHei, sans-serif;" parent="1" source="qdz_EZVD8mXz1i7pljkY-145" target="qdz_EZVD8mXz1i7pljkY-100" edge="1">
          <mxGeometry width="50" height="50" relative="1" as="geometry">
            <mxPoint x="293" y="460" as="sourcePoint" />
            <mxPoint x="292.75" y="484.5" as="targetPoint" />
          </mxGeometry>
        </mxCell>
        <mxCell id="qdz_EZVD8mXz1i7pljkY-100" value="" style="verticalLabelPosition=bottom;verticalAlign=top;html=1;shape=mxgraph.flowchart.or;fillColor=#dae8fc;strokeColor=#6c8ebf;fontFamily=Source Code Pro, DejaVu Sans Mono, Ubuntu Mono, Anonymous Pro, Droid Sans Mono, Menlo, Monaco, Consolas, Inconsolata, Courier, monospace, PingFang SC, Microsoft YaHei, sans-serif;" parent="1" vertex="1">
          <mxGeometry x="282.75" y="469.5" width="20" height="20" as="geometry" />
        </mxCell>
        <mxCell id="qdz_EZVD8mXz1i7pljkY-101" value="" style="endArrow=classic;html=1;rounded=0;exitX=0.5;exitY=1;exitDx=0;exitDy=0;exitPerimeter=0;fontFamily=Source Code Pro, DejaVu Sans Mono, Ubuntu Mono, Anonymous Pro, Droid Sans Mono, Menlo, Monaco, Consolas, Inconsolata, Courier, monospace, PingFang SC, Microsoft YaHei, sans-serif;" parent="1" source="qdz_EZVD8mXz1i7pljkY-100" edge="1">
          <mxGeometry width="50" height="50" relative="1" as="geometry">
            <mxPoint x="292.46" y="536.5" as="sourcePoint" />
            <mxPoint x="293" y="502" as="targetPoint" />
          </mxGeometry>
        </mxCell>
        <mxCell id="qdz_EZVD8mXz1i7pljkY-102" value="" style="endArrow=classic;html=1;rounded=0;entryX=0.5;entryY=0;entryDx=0;entryDy=0;exitX=0.5;exitY=1;exitDx=0;exitDy=0;fontFamily=Source Code Pro, DejaVu Sans Mono, Ubuntu Mono, Anonymous Pro, Droid Sans Mono, Menlo, Monaco, Consolas, Inconsolata, Courier, monospace, PingFang SC, Microsoft YaHei, sans-serif;" parent="1" source="qdz_EZVD8mXz1i7pljkY-104" target="qdz_EZVD8mXz1i7pljkY-93" edge="1">
          <mxGeometry width="50" height="50" relative="1" as="geometry">
            <mxPoint x="233" y="272" as="sourcePoint" />
            <mxPoint x="203" y="282" as="targetPoint" />
            <Array as="points">
              <mxPoint x="233" y="272" />
              <mxPoint x="293" y="272" />
            </Array>
          </mxGeometry>
        </mxCell>
        <mxCell id="qdz_EZVD8mXz1i7pljkY-103" value="" style="endArrow=classic;html=1;rounded=0;entryX=0.5;entryY=0;entryDx=0;entryDy=0;fontFamily=Source Code Pro, DejaVu Sans Mono, Ubuntu Mono, Anonymous Pro, Droid Sans Mono, Menlo, Monaco, Consolas, Inconsolata, Courier, monospace, PingFang SC, Microsoft YaHei, sans-serif;" parent="1" target="qdz_EZVD8mXz1i7pljkY-94" edge="1">
          <mxGeometry width="50" height="50" relative="1" as="geometry">
            <mxPoint x="240" y="272" as="sourcePoint" />
            <mxPoint x="133" y="272" as="targetPoint" />
            <Array as="points">
              <mxPoint x="173" y="272" />
            </Array>
          </mxGeometry>
        </mxCell>
        <mxCell id="qdz_EZVD8mXz1i7pljkY-104" value="&lt;font style=&quot;font-size: 16px;&quot;&gt;IP&lt;/font&gt;" style="rounded=0;whiteSpace=wrap;html=1;textShadow=0;fillColor=#dae8fc;strokeColor=#6c8ebf;fontFamily=Source Code Pro, DejaVu Sans Mono, Ubuntu Mono, Anonymous Pro, Droid Sans Mono, Menlo, Monaco, Consolas, Inconsolata, Courier, monospace, PingFang SC, Microsoft YaHei, sans-serif;" parent="1" vertex="1">
          <mxGeometry x="203" y="232" width="60" height="19" as="geometry" />
        </mxCell>
        <mxCell id="qdz_EZVD8mXz1i7pljkY-105" value="" style="endArrow=classic;html=1;rounded=0;entryX=0.5;entryY=0;entryDx=0;entryDy=0;exitX=0.5;exitY=1;exitDx=0;exitDy=0;strokeColor=#000000;fontFamily=Source Code Pro, DejaVu Sans Mono, Ubuntu Mono, Anonymous Pro, Droid Sans Mono, Menlo, Monaco, Consolas, Inconsolata, Courier, monospace, PingFang SC, Microsoft YaHei, sans-serif;" parent="1" source="qdz_EZVD8mXz1i7pljkY-106" target="qdz_EZVD8mXz1i7pljkY-104" edge="1">
          <mxGeometry width="50" height="50" relative="1" as="geometry">
            <mxPoint x="233" y="212" as="sourcePoint" />
            <mxPoint x="193" y="212" as="targetPoint" />
          </mxGeometry>
        </mxCell>
        <mxCell id="qdz_EZVD8mXz1i7pljkY-106" value="&lt;font style=&quot;font-size: 16px;&quot;&gt;Input (64)&lt;/font&gt;" style="rounded=0;whiteSpace=wrap;html=1;fontFamily=Source Code Pro, DejaVu Sans Mono, Ubuntu Mono, Anonymous Pro, Droid Sans Mono, Menlo, Monaco, Consolas, Inconsolata, Courier, monospace, PingFang SC, Microsoft YaHei, sans-serif;" parent="1" vertex="1">
          <mxGeometry x="153" y="182" width="160" height="29" as="geometry" />
        </mxCell>
        <mxCell id="qdz_EZVD8mXz1i7pljkY-109" value="&lt;font style=&quot;font-size: 16px;&quot;&gt;Key (64)&lt;/font&gt;" style="rounded=0;whiteSpace=wrap;html=1;fontFamily=Source Code Pro, DejaVu Sans Mono, Ubuntu Mono, Anonymous Pro, Droid Sans Mono, Menlo, Monaco, Consolas, Inconsolata, Courier, monospace, PingFang SC, Microsoft YaHei, sans-serif;" parent="1" vertex="1">
          <mxGeometry x="553" y="181" width="160" height="30" as="geometry" />
        </mxCell>
        <mxCell id="qdz_EZVD8mXz1i7pljkY-110" value="" style="endArrow=classic;html=1;rounded=0;entryX=0.515;entryY=-0.018;entryDx=0;entryDy=0;entryPerimeter=0;fontFamily=Source Code Pro, DejaVu Sans Mono, Ubuntu Mono, Anonymous Pro, Droid Sans Mono, Menlo, Monaco, Consolas, Inconsolata, Courier, monospace, PingFang SC, Microsoft YaHei, sans-serif;" parent="1" edge="1">
          <mxGeometry width="50" height="50" relative="1" as="geometry">
            <mxPoint x="636" y="211" as="sourcePoint" />
            <mxPoint x="635.9" y="229.64" as="targetPoint" />
          </mxGeometry>
        </mxCell>
        <mxCell id="qdz_EZVD8mXz1i7pljkY-111" value="&lt;font style=&quot;font-size: 16px;&quot;&gt;D&lt;sub style=&quot;&quot;&gt;0&lt;/sub&gt;&lt;/font&gt;&lt;span style=&quot;font-size: 16px;&quot;&gt;&amp;nbsp;(28)&lt;/span&gt;" style="rounded=0;whiteSpace=wrap;html=1;fontFamily=Source Code Pro, DejaVu Sans Mono, Ubuntu Mono, Anonymous Pro, Droid Sans Mono, Menlo, Monaco, Consolas, Inconsolata, Courier, monospace, PingFang SC, Microsoft YaHei, sans-serif;" parent="1" vertex="1">
          <mxGeometry x="656" y="280" width="80" height="30" as="geometry" />
        </mxCell>
        <mxCell id="qdz_EZVD8mXz1i7pljkY-112" value="&lt;font style=&quot;font-size: 16px;&quot;&gt;C&lt;sub&gt;0&lt;/sub&gt;&lt;/font&gt;&lt;span style=&quot;font-size: 16px;&quot;&gt;&amp;nbsp;(28)&lt;/span&gt;" style="rounded=0;whiteSpace=wrap;html=1;fontFamily=Source Code Pro, DejaVu Sans Mono, Ubuntu Mono, Anonymous Pro, Droid Sans Mono, Menlo, Monaco, Consolas, Inconsolata, Courier, monospace, PingFang SC, Microsoft YaHei, sans-serif;" parent="1" vertex="1">
          <mxGeometry x="536" y="280" width="80" height="30" as="geometry" />
        </mxCell>
        <mxCell id="qdz_EZVD8mXz1i7pljkY-113" value="" style="endArrow=classic;html=1;rounded=0;entryX=0.5;entryY=0;entryDx=0;entryDy=0;fontFamily=Source Code Pro, DejaVu Sans Mono, Ubuntu Mono, Anonymous Pro, Droid Sans Mono, Menlo, Monaco, Consolas, Inconsolata, Courier, monospace, PingFang SC, Microsoft YaHei, sans-serif;" parent="1" target="qdz_EZVD8mXz1i7pljkY-111" edge="1">
          <mxGeometry width="50" height="50" relative="1" as="geometry">
            <mxPoint x="636" y="250" as="sourcePoint" />
            <mxPoint x="606" y="260" as="targetPoint" />
            <Array as="points">
              <mxPoint x="636" y="260" />
              <mxPoint x="696" y="260" />
            </Array>
          </mxGeometry>
        </mxCell>
        <mxCell id="qdz_EZVD8mXz1i7pljkY-114" value="" style="endArrow=classic;html=1;rounded=0;entryX=0.5;entryY=0;entryDx=0;entryDy=0;fontFamily=Source Code Pro, DejaVu Sans Mono, Ubuntu Mono, Anonymous Pro, Droid Sans Mono, Menlo, Monaco, Consolas, Inconsolata, Courier, monospace, PingFang SC, Microsoft YaHei, sans-serif;" parent="1" target="qdz_EZVD8mXz1i7pljkY-112" edge="1">
          <mxGeometry width="50" height="50" relative="1" as="geometry">
            <mxPoint x="636" y="260" as="sourcePoint" />
            <mxPoint x="536" y="240" as="targetPoint" />
            <Array as="points">
              <mxPoint x="576" y="260" />
            </Array>
          </mxGeometry>
        </mxCell>
        <mxCell id="qdz_EZVD8mXz1i7pljkY-115" value="" style="endArrow=classic;html=1;rounded=0;exitX=0.5;exitY=1;exitDx=0;exitDy=0;entryX=0.5;entryY=0;entryDx=0;entryDy=0;fontFamily=Source Code Pro, DejaVu Sans Mono, Ubuntu Mono, Anonymous Pro, Droid Sans Mono, Menlo, Monaco, Consolas, Inconsolata, Courier, monospace, PingFang SC, Microsoft YaHei, sans-serif;" parent="1" source="qdz_EZVD8mXz1i7pljkY-112" target="qdz_EZVD8mXz1i7pljkY-116" edge="1">
          <mxGeometry width="50" height="50" relative="1" as="geometry">
            <mxPoint x="496" y="440" as="sourcePoint" />
            <mxPoint x="576" y="330" as="targetPoint" />
          </mxGeometry>
        </mxCell>
        <mxCell id="qdz_EZVD8mXz1i7pljkY-116" value="&lt;font&gt;&lt;span style=&quot;font-size: 16px;&quot;&gt;Left Shift&lt;/span&gt;&lt;/font&gt;" style="rounded=0;whiteSpace=wrap;html=1;textShadow=0;fillColor=#dae8fc;strokeColor=#6c8ebf;fontFamily=Source Code Pro, DejaVu Sans Mono, Ubuntu Mono, Anonymous Pro, Droid Sans Mono, Menlo, Monaco, Consolas, Inconsolata, Courier, monospace, PingFang SC, Microsoft YaHei, sans-serif;" parent="1" vertex="1">
          <mxGeometry x="526" y="324" width="100" height="20" as="geometry" />
        </mxCell>
        <mxCell id="qdz_EZVD8mXz1i7pljkY-117" value="" style="endArrow=classic;html=1;rounded=0;exitX=0.5;exitY=1;exitDx=0;exitDy=0;entryX=0.5;entryY=0;entryDx=0;entryDy=0;fontFamily=Source Code Pro, DejaVu Sans Mono, Ubuntu Mono, Anonymous Pro, Droid Sans Mono, Menlo, Monaco, Consolas, Inconsolata, Courier, monospace, PingFang SC, Microsoft YaHei, sans-serif;" parent="1" source="qdz_EZVD8mXz1i7pljkY-111" target="qdz_EZVD8mXz1i7pljkY-118" edge="1">
          <mxGeometry width="50" height="50" relative="1" as="geometry">
            <mxPoint x="696" y="310" as="sourcePoint" />
            <mxPoint x="696" y="330" as="targetPoint" />
          </mxGeometry>
        </mxCell>
        <mxCell id="qdz_EZVD8mXz1i7pljkY-118" value="&lt;font&gt;&lt;span style=&quot;font-size: 16px;&quot;&gt;Left Shift&lt;/span&gt;&lt;/font&gt;" style="rounded=0;whiteSpace=wrap;html=1;textShadow=0;fillColor=#dae8fc;strokeColor=#6c8ebf;fontFamily=Source Code Pro, DejaVu Sans Mono, Ubuntu Mono, Anonymous Pro, Droid Sans Mono, Menlo, Monaco, Consolas, Inconsolata, Courier, monospace, PingFang SC, Microsoft YaHei, sans-serif;" parent="1" vertex="1">
          <mxGeometry x="646" y="324" width="100" height="20" as="geometry" />
        </mxCell>
        <mxCell id="qdz_EZVD8mXz1i7pljkY-119" value="" style="endArrow=classic;html=1;rounded=0;exitX=0.5;exitY=1;exitDx=0;exitDy=0;entryX=0.5;entryY=0;entryDx=0;entryDy=0;fontFamily=Source Code Pro, DejaVu Sans Mono, Ubuntu Mono, Anonymous Pro, Droid Sans Mono, Menlo, Monaco, Consolas, Inconsolata, Courier, monospace, PingFang SC, Microsoft YaHei, sans-serif;" parent="1" source="qdz_EZVD8mXz1i7pljkY-116" target="qdz_EZVD8mXz1i7pljkY-122" edge="1">
          <mxGeometry width="50" height="50" relative="1" as="geometry">
            <mxPoint x="576" y="350" as="sourcePoint" />
            <mxPoint x="576" y="370" as="targetPoint" />
          </mxGeometry>
        </mxCell>
        <mxCell id="qdz_EZVD8mXz1i7pljkY-120" value="" style="endArrow=classic;html=1;rounded=0;exitX=0.5;exitY=1;exitDx=0;exitDy=0;entryX=0.5;entryY=0;entryDx=0;entryDy=0;fontFamily=Source Code Pro, DejaVu Sans Mono, Ubuntu Mono, Anonymous Pro, Droid Sans Mono, Menlo, Monaco, Consolas, Inconsolata, Courier, monospace, PingFang SC, Microsoft YaHei, sans-serif;" parent="1" source="qdz_EZVD8mXz1i7pljkY-118" target="qdz_EZVD8mXz1i7pljkY-121" edge="1">
          <mxGeometry width="50" height="50" relative="1" as="geometry">
            <mxPoint x="695.79" y="350" as="sourcePoint" />
            <mxPoint x="695.79" y="370" as="targetPoint" />
          </mxGeometry>
        </mxCell>
        <mxCell id="qdz_EZVD8mXz1i7pljkY-121" value="&lt;font style=&quot;font-size: 16px;&quot;&gt;D&lt;sub style=&quot;&quot;&gt;1&lt;/sub&gt;&lt;/font&gt;&lt;span style=&quot;font-size: 16px;&quot;&gt;&amp;nbsp;(28)&lt;/span&gt;" style="rounded=0;whiteSpace=wrap;html=1;fontFamily=Source Code Pro, DejaVu Sans Mono, Ubuntu Mono, Anonymous Pro, Droid Sans Mono, Menlo, Monaco, Consolas, Inconsolata, Courier, monospace, PingFang SC, Microsoft YaHei, sans-serif;" parent="1" vertex="1">
          <mxGeometry x="656" y="358" width="80" height="30" as="geometry" />
        </mxCell>
        <mxCell id="qdz_EZVD8mXz1i7pljkY-122" value="&lt;font style=&quot;font-size: 16px;&quot;&gt;C&lt;sub&gt;1&lt;/sub&gt;&lt;/font&gt;&lt;span style=&quot;font-size: 16px;&quot;&gt;&amp;nbsp;(28)&lt;/span&gt;" style="rounded=0;whiteSpace=wrap;html=1;fontFamily=Source Code Pro, DejaVu Sans Mono, Ubuntu Mono, Anonymous Pro, Droid Sans Mono, Menlo, Monaco, Consolas, Inconsolata, Courier, monospace, PingFang SC, Microsoft YaHei, sans-serif;" parent="1" vertex="1">
          <mxGeometry x="536" y="358" width="80" height="30" as="geometry" />
        </mxCell>
        <mxCell id="qdz_EZVD8mXz1i7pljkY-123" value="" style="endArrow=classic;html=1;rounded=0;exitX=0.5;exitY=1;exitDx=0;exitDy=0;entryX=0.5;entryY=0;entryDx=0;entryDy=0;fontFamily=Source Code Pro, DejaVu Sans Mono, Ubuntu Mono, Anonymous Pro, Droid Sans Mono, Menlo, Monaco, Consolas, Inconsolata, Courier, monospace, PingFang SC, Microsoft YaHei, sans-serif;" parent="1" source="qdz_EZVD8mXz1i7pljkY-122" target="qdz_EZVD8mXz1i7pljkY-234" edge="1">
          <mxGeometry width="50" height="50" relative="1" as="geometry">
            <mxPoint x="496" y="530" as="sourcePoint" />
            <mxPoint x="576" y="511" as="targetPoint" />
          </mxGeometry>
        </mxCell>
        <mxCell id="qdz_EZVD8mXz1i7pljkY-125" value="" style="endArrow=classic;html=1;rounded=0;exitX=0.5;exitY=1;exitDx=0;exitDy=0;entryX=0.5;entryY=0;entryDx=0;entryDy=0;fontFamily=Source Code Pro, DejaVu Sans Mono, Ubuntu Mono, Anonymous Pro, Droid Sans Mono, Menlo, Monaco, Consolas, Inconsolata, Courier, monospace, PingFang SC, Microsoft YaHei, sans-serif;" parent="1" source="qdz_EZVD8mXz1i7pljkY-121" target="qdz_EZVD8mXz1i7pljkY-235" edge="1">
          <mxGeometry width="50" height="50" relative="1" as="geometry">
            <mxPoint x="696" y="400" as="sourcePoint" />
            <mxPoint x="696" y="511" as="targetPoint" />
          </mxGeometry>
        </mxCell>
        <mxCell id="qdz_EZVD8mXz1i7pljkY-129" value="" style="endArrow=classic;html=1;rounded=0;edgeStyle=elbowEdgeStyle;elbow=vertical;entryX=0.704;entryY=1.002;entryDx=0;entryDy=0;entryPerimeter=0;fontFamily=Source Code Pro, DejaVu Sans Mono, Ubuntu Mono, Anonymous Pro, Droid Sans Mono, Menlo, Monaco, Consolas, Inconsolata, Courier, monospace, PingFang SC, Microsoft YaHei, sans-serif;" parent="1" target="qdz_EZVD8mXz1i7pljkY-131" edge="1">
          <mxGeometry width="50" height="50" relative="1" as="geometry">
            <mxPoint x="576" y="399" as="sourcePoint" />
            <mxPoint x="523" y="399" as="targetPoint" />
          </mxGeometry>
        </mxCell>
        <mxCell id="qdz_EZVD8mXz1i7pljkY-130" value="" style="endArrow=classic;html=1;rounded=0;elbow=vertical;entryX=0.275;entryY=1.002;entryDx=0;entryDy=0;entryPerimeter=0;fontFamily=Source Code Pro, DejaVu Sans Mono, Ubuntu Mono, Anonymous Pro, Droid Sans Mono, Menlo, Monaco, Consolas, Inconsolata, Courier, monospace, PingFang SC, Microsoft YaHei, sans-serif;" parent="1" target="qdz_EZVD8mXz1i7pljkY-131" edge="1">
          <mxGeometry width="50" height="50" relative="1" as="geometry">
            <mxPoint x="696" y="426" as="sourcePoint" />
            <mxPoint x="523" y="425" as="targetPoint" />
          </mxGeometry>
        </mxCell>
        <mxCell id="FETZFHnWCQZqlO5JsZhI-26" style="edgeStyle=orthogonalEdgeStyle;rounded=0;orthogonalLoop=1;jettySize=auto;html=1;exitX=0.5;exitY=0;exitDx=0;exitDy=0;entryX=1;entryY=0.5;entryDx=0;entryDy=0;" edge="1" parent="1" source="qdz_EZVD8mXz1i7pljkY-131" target="FETZFHnWCQZqlO5JsZhI-3">
          <mxGeometry relative="1" as="geometry" />
        </mxCell>
        <mxCell id="qdz_EZVD8mXz1i7pljkY-131" value="" style="shape=trapezoid;perimeter=trapezoidPerimeter;whiteSpace=wrap;html=1;fixedSize=1;size=17.5;rotation=-90;fillColor=#dae8fc;strokeColor=#6c8ebf;fontFamily=Source Code Pro, DejaVu Sans Mono, Ubuntu Mono, Anonymous Pro, Droid Sans Mono, Menlo, Monaco, Consolas, Inconsolata, Courier, monospace, PingFang SC, Microsoft YaHei, sans-serif;" parent="1" vertex="1">
          <mxGeometry x="470.5" y="394.5" width="63" height="35" as="geometry" />
        </mxCell>
        <mxCell id="qdz_EZVD8mXz1i7pljkY-132" value="" style="shape=trapezoid;perimeter=trapezoidPerimeter;html=1;fixedSize=1;size=10;rotation=-180;horizontal=1;labelBorderColor=none;verticalAlign=middle;align=center;fontSize=16;whiteSpace=wrap;textDirection=ltr;fillColor=#dae8fc;strokeColor=#6c8ebf;fontFamily=Source Code Pro, DejaVu Sans Mono, Ubuntu Mono, Anonymous Pro, Droid Sans Mono, Menlo, Monaco, Consolas, Inconsolata, Courier, monospace, PingFang SC, Microsoft YaHei, sans-serif;" parent="1" vertex="1">
          <mxGeometry x="597.5" y="230" width="75" height="20" as="geometry" />
        </mxCell>
        <mxCell id="qdz_EZVD8mXz1i7pljkY-133" value="&lt;font style=&quot;font-size: 16px;&quot;&gt;PC1&lt;/font&gt;" style="text;html=1;align=center;verticalAlign=middle;whiteSpace=wrap;rounded=0;fontFamily=Source Code Pro, DejaVu Sans Mono, Ubuntu Mono, Anonymous Pro, Droid Sans Mono, Menlo, Monaco, Consolas, Inconsolata, Courier, monospace, PingFang SC, Microsoft YaHei, sans-serif;" parent="1" vertex="1">
          <mxGeometry x="605" y="225" width="60" height="30" as="geometry" />
        </mxCell>
        <mxCell id="qdz_EZVD8mXz1i7pljkY-134" value="&lt;font style=&quot;font-size: 16px;&quot;&gt;PC2&lt;/font&gt;" style="text;html=1;align=center;verticalAlign=middle;whiteSpace=wrap;rounded=0;fontFamily=Source Code Pro, DejaVu Sans Mono, Ubuntu Mono, Anonymous Pro, Droid Sans Mono, Menlo, Monaco, Consolas, Inconsolata, Courier, monospace, PingFang SC, Microsoft YaHei, sans-serif;" parent="1" vertex="1">
          <mxGeometry x="487" y="397" width="30" height="30" as="geometry" />
        </mxCell>
        <mxCell id="qdz_EZVD8mXz1i7pljkY-145" value="" style="shape=trapezoid;perimeter=trapezoidPerimeter;html=1;fixedSize=1;size=10;rotation=-180;horizontal=1;labelBorderColor=none;verticalAlign=middle;align=center;fontSize=16;whiteSpace=wrap;textDirection=ltr;fillColor=#dae8fc;strokeColor=#6c8ebf;fontFamily=Source Code Pro, DejaVu Sans Mono, Ubuntu Mono, Anonymous Pro, Droid Sans Mono, Menlo, Monaco, Consolas, Inconsolata, Courier, monospace, PingFang SC, Microsoft YaHei, sans-serif;" parent="1" vertex="1">
          <mxGeometry x="255.25" y="434.5" width="75" height="21" as="geometry" />
        </mxCell>
        <mxCell id="qdz_EZVD8mXz1i7pljkY-146" value="&lt;font style=&quot;font-size: 16px;&quot;&gt;S&lt;/font&gt;" style="text;html=1;align=center;verticalAlign=middle;whiteSpace=wrap;rounded=0;fontFamily=Source Code Pro, DejaVu Sans Mono, Ubuntu Mono, Anonymous Pro, Droid Sans Mono, Menlo, Monaco, Consolas, Inconsolata, Courier, monospace, PingFang SC, Microsoft YaHei, sans-serif;" parent="1" vertex="1">
          <mxGeometry x="280" y="437.25" width="25" height="15.5" as="geometry" />
        </mxCell>
        <mxCell id="qdz_EZVD8mXz1i7pljkY-147" value="&lt;font&gt;E&lt;/font&gt;" style="shape=trapezoid;perimeter=trapezoidPerimeter;html=1;fixedSize=1;size=10;rotation=0;horizontal=1;labelBorderColor=none;verticalAlign=middle;align=center;fontSize=16;whiteSpace=wrap;textDirection=ltr;fillColor=#dae8fc;strokeColor=#6c8ebf;fontFamily=Source Code Pro, DejaVu Sans Mono, Ubuntu Mono, Anonymous Pro, Droid Sans Mono, Menlo, Monaco, Consolas, Inconsolata, Courier, monospace, PingFang SC, Microsoft YaHei, sans-serif;" parent="1" vertex="1">
          <mxGeometry x="255.25" y="369.5" width="75" height="20" as="geometry" />
        </mxCell>
        <mxCell id="qdz_EZVD8mXz1i7pljkY-148" value="" style="verticalLabelPosition=bottom;verticalAlign=top;html=1;shape=mxgraph.flowchart.or;fillColor=#dae8fc;strokeColor=#6c8ebf;fontFamily=Source Code Pro, DejaVu Sans Mono, Ubuntu Mono, Anonymous Pro, Droid Sans Mono, Menlo, Monaco, Consolas, Inconsolata, Courier, monospace, PingFang SC, Microsoft YaHei, sans-serif;" parent="1" vertex="1">
          <mxGeometry x="282.75" y="401.5" width="20" height="21" as="geometry" />
        </mxCell>
        <mxCell id="qdz_EZVD8mXz1i7pljkY-149" value="" style="endArrow=classic;html=1;rounded=0;fontFamily=Source Code Pro, DejaVu Sans Mono, Ubuntu Mono, Anonymous Pro, Droid Sans Mono, Menlo, Monaco, Consolas, Inconsolata, Courier, monospace, PingFang SC, Microsoft YaHei, sans-serif;fontSize=16;fontColor=default;labelBorderColor=none;horizontal=1;textDirection=ltr;entryX=0.5;entryY=0;entryDx=0;entryDy=0;entryPerimeter=0;exitX=0.5;exitY=1;exitDx=0;exitDy=0;" parent="1" source="qdz_EZVD8mXz1i7pljkY-147" target="qdz_EZVD8mXz1i7pljkY-148" edge="1">
          <mxGeometry width="50" height="50" relative="1" as="geometry">
            <mxPoint x="292.64" y="386.5" as="sourcePoint" />
            <mxPoint x="292.75" y="404.5" as="targetPoint" />
          </mxGeometry>
        </mxCell>
        <mxCell id="qdz_EZVD8mXz1i7pljkY-150" value="" style="endArrow=classic;html=1;rounded=0;fontFamily=Source Code Pro, DejaVu Sans Mono, Ubuntu Mono, Anonymous Pro, Droid Sans Mono, Menlo, Monaco, Consolas, Inconsolata, Courier, monospace, PingFang SC, Microsoft YaHei, sans-serif;fontSize=16;fontColor=default;labelBorderColor=none;horizontal=1;textDirection=ltr;entryX=0.5;entryY=1;entryDx=0;entryDy=0;exitX=0.5;exitY=1;exitDx=0;exitDy=0;exitPerimeter=0;" parent="1" source="qdz_EZVD8mXz1i7pljkY-148" target="qdz_EZVD8mXz1i7pljkY-145" edge="1">
          <mxGeometry width="50" height="50" relative="1" as="geometry">
            <mxPoint x="292.64" y="425.5" as="sourcePoint" />
            <mxPoint x="292.75" y="443.5" as="targetPoint" />
          </mxGeometry>
        </mxCell>
        <mxCell id="qdz_EZVD8mXz1i7pljkY-173" value="&lt;font style=&quot;font-size: 16px;&quot;&gt;R&lt;sub style=&quot;&quot;&gt;1&lt;/sub&gt;&lt;/font&gt;&lt;span style=&quot;font-size: 16px;&quot;&gt;&amp;nbsp;(32)&lt;/span&gt;" style="rounded=0;whiteSpace=wrap;html=1;fontFamily=Source Code Pro, DejaVu Sans Mono, Ubuntu Mono, Anonymous Pro, Droid Sans Mono, Menlo, Monaco, Consolas, Inconsolata, Courier, monospace, PingFang SC, Microsoft YaHei, sans-serif;" parent="1" vertex="1">
          <mxGeometry x="253" y="501.75" width="80" height="30" as="geometry" />
        </mxCell>
        <mxCell id="qdz_EZVD8mXz1i7pljkY-174" value="&lt;font style=&quot;font-size: 16px;&quot;&gt;L&lt;sub&gt;1&lt;/sub&gt;&lt;/font&gt;&lt;span style=&quot;font-size: 16px;&quot;&gt;&amp;nbsp;(32)&lt;/span&gt;" style="rounded=0;whiteSpace=wrap;html=1;fontFamily=Source Code Pro, DejaVu Sans Mono, Ubuntu Mono, Anonymous Pro, Droid Sans Mono, Menlo, Monaco, Consolas, Inconsolata, Courier, monospace, PingFang SC, Microsoft YaHei, sans-serif;" parent="1" vertex="1">
          <mxGeometry x="133" y="501.75" width="80" height="30" as="geometry" />
        </mxCell>
        <mxCell id="qdz_EZVD8mXz1i7pljkY-175" value="" style="endArrow=classic;html=1;rounded=0;exitX=0.5;exitY=1;exitDx=0;exitDy=0;fontFamily=Source Code Pro, DejaVu Sans Mono, Ubuntu Mono, Anonymous Pro, Droid Sans Mono, Menlo, Monaco, Consolas, Inconsolata, Courier, monospace, PingFang SC, Microsoft YaHei, sans-serif;" parent="1" edge="1">
          <mxGeometry width="50" height="50" relative="1" as="geometry">
            <mxPoint x="295.75" y="531.75" as="sourcePoint" />
            <mxPoint x="172.75" y="691.75" as="targetPoint" />
            <Array as="points">
              <mxPoint x="295.75" y="541.75" />
              <mxPoint x="272.75" y="541.75" />
              <mxPoint x="172.75" y="671.75" />
            </Array>
          </mxGeometry>
        </mxCell>
        <mxCell id="qdz_EZVD8mXz1i7pljkY-176" value="" style="endArrow=classic;html=1;rounded=0;entryX=-0.013;entryY=0.527;entryDx=0;entryDy=0;entryPerimeter=0;exitX=0.5;exitY=1;exitDx=0;exitDy=0;fontFamily=Source Code Pro, DejaVu Sans Mono, Ubuntu Mono, Anonymous Pro, Droid Sans Mono, Menlo, Monaco, Consolas, Inconsolata, Courier, monospace, PingFang SC, Microsoft YaHei, sans-serif;" parent="1" target="qdz_EZVD8mXz1i7pljkY-179" edge="1">
          <mxGeometry width="50" height="50" relative="1" as="geometry">
            <mxPoint x="175.75" y="531.75" as="sourcePoint" />
            <mxPoint x="285.5" y="667.25" as="targetPoint" />
            <Array as="points">
              <mxPoint x="172.75" y="531.75" />
              <mxPoint x="172.75" y="541.75" />
              <mxPoint x="272.75" y="669.75" />
            </Array>
          </mxGeometry>
        </mxCell>
        <mxCell id="qdz_EZVD8mXz1i7pljkY-177" value="" style="endArrow=classic;html=1;rounded=0;entryX=0.5;entryY=0;entryDx=0;entryDy=0;fontFamily=Source Code Pro, DejaVu Sans Mono, Ubuntu Mono, Anonymous Pro, Droid Sans Mono, Menlo, Monaco, Consolas, Inconsolata, Courier, monospace, PingFang SC, Microsoft YaHei, sans-serif;" parent="1" target="qdz_EZVD8mXz1i7pljkY-183" edge="1">
          <mxGeometry width="50" height="50" relative="1" as="geometry">
            <mxPoint x="295.75" y="541.75" as="sourcePoint" />
            <mxPoint x="295.55" y="561.75" as="targetPoint" />
          </mxGeometry>
        </mxCell>
        <mxCell id="qdz_EZVD8mXz1i7pljkY-178" value="" style="endArrow=classic;html=1;rounded=0;entryX=0.5;entryY=0;entryDx=0;entryDy=0;entryPerimeter=0;exitX=0.5;exitY=0;exitDx=0;exitDy=0;fontFamily=Source Code Pro, DejaVu Sans Mono, Ubuntu Mono, Anonymous Pro, Droid Sans Mono, Menlo, Monaco, Consolas, Inconsolata, Courier, monospace, PingFang SC, Microsoft YaHei, sans-serif;" parent="1" source="qdz_EZVD8mXz1i7pljkY-181" target="qdz_EZVD8mXz1i7pljkY-179" edge="1">
          <mxGeometry width="50" height="50" relative="1" as="geometry">
            <mxPoint x="295.75" y="649.75" as="sourcePoint" />
            <mxPoint x="295.5" y="674.25" as="targetPoint" />
          </mxGeometry>
        </mxCell>
        <mxCell id="qdz_EZVD8mXz1i7pljkY-179" value="" style="verticalLabelPosition=bottom;verticalAlign=top;html=1;shape=mxgraph.flowchart.or;fillColor=#dae8fc;strokeColor=#6c8ebf;fontFamily=Source Code Pro, DejaVu Sans Mono, Ubuntu Mono, Anonymous Pro, Droid Sans Mono, Menlo, Monaco, Consolas, Inconsolata, Courier, monospace, PingFang SC, Microsoft YaHei, sans-serif;" parent="1" vertex="1">
          <mxGeometry x="285.5" y="659.25" width="20" height="20" as="geometry" />
        </mxCell>
        <mxCell id="qdz_EZVD8mXz1i7pljkY-180" value="" style="endArrow=classic;html=1;rounded=0;exitX=0.5;exitY=1;exitDx=0;exitDy=0;exitPerimeter=0;fontFamily=Source Code Pro, DejaVu Sans Mono, Ubuntu Mono, Anonymous Pro, Droid Sans Mono, Menlo, Monaco, Consolas, Inconsolata, Courier, monospace, PingFang SC, Microsoft YaHei, sans-serif;" parent="1" source="qdz_EZVD8mXz1i7pljkY-179" edge="1">
          <mxGeometry width="50" height="50" relative="1" as="geometry">
            <mxPoint x="295.21" y="726.25" as="sourcePoint" />
            <mxPoint x="295.4" y="691" as="targetPoint" />
          </mxGeometry>
        </mxCell>
        <mxCell id="qdz_EZVD8mXz1i7pljkY-181" value="" style="shape=trapezoid;perimeter=trapezoidPerimeter;html=1;fixedSize=1;size=10;rotation=-180;horizontal=1;labelBorderColor=none;verticalAlign=middle;align=center;fontSize=16;whiteSpace=wrap;textDirection=ltr;fillColor=#dae8fc;strokeColor=#6c8ebf;fontFamily=Source Code Pro, DejaVu Sans Mono, Ubuntu Mono, Anonymous Pro, Droid Sans Mono, Menlo, Monaco, Consolas, Inconsolata, Courier, monospace, PingFang SC, Microsoft YaHei, sans-serif;" parent="1" vertex="1">
          <mxGeometry x="258" y="624.25" width="75" height="21" as="geometry" />
        </mxCell>
        <mxCell id="qdz_EZVD8mXz1i7pljkY-182" value="&lt;font style=&quot;font-size: 16px;&quot;&gt;S&lt;/font&gt;" style="text;html=1;align=center;verticalAlign=middle;whiteSpace=wrap;rounded=0;fontFamily=Source Code Pro, DejaVu Sans Mono, Ubuntu Mono, Anonymous Pro, Droid Sans Mono, Menlo, Monaco, Consolas, Inconsolata, Courier, monospace, PingFang SC, Microsoft YaHei, sans-serif;" parent="1" vertex="1">
          <mxGeometry x="282.75" y="627" width="25" height="15.5" as="geometry" />
        </mxCell>
        <mxCell id="qdz_EZVD8mXz1i7pljkY-183" value="&lt;font&gt;E&lt;/font&gt;" style="shape=trapezoid;perimeter=trapezoidPerimeter;html=1;fixedSize=1;size=10;rotation=0;horizontal=1;labelBorderColor=none;verticalAlign=middle;align=center;fontSize=16;whiteSpace=wrap;textDirection=ltr;fillColor=#dae8fc;strokeColor=#6c8ebf;fontFamily=Source Code Pro, DejaVu Sans Mono, Ubuntu Mono, Anonymous Pro, Droid Sans Mono, Menlo, Monaco, Consolas, Inconsolata, Courier, monospace, PingFang SC, Microsoft YaHei, sans-serif;" parent="1" vertex="1">
          <mxGeometry x="258" y="559.25" width="75" height="20" as="geometry" />
        </mxCell>
        <mxCell id="qdz_EZVD8mXz1i7pljkY-184" value="" style="verticalLabelPosition=bottom;verticalAlign=top;html=1;shape=mxgraph.flowchart.or;fillColor=#dae8fc;strokeColor=#6c8ebf;fontFamily=Source Code Pro, DejaVu Sans Mono, Ubuntu Mono, Anonymous Pro, Droid Sans Mono, Menlo, Monaco, Consolas, Inconsolata, Courier, monospace, PingFang SC, Microsoft YaHei, sans-serif;" parent="1" vertex="1">
          <mxGeometry x="285.5" y="591.25" width="20" height="21" as="geometry" />
        </mxCell>
        <mxCell id="qdz_EZVD8mXz1i7pljkY-185" value="" style="endArrow=classic;html=1;rounded=0;fontFamily=Source Code Pro, DejaVu Sans Mono, Ubuntu Mono, Anonymous Pro, Droid Sans Mono, Menlo, Monaco, Consolas, Inconsolata, Courier, monospace, PingFang SC, Microsoft YaHei, sans-serif;fontSize=16;fontColor=default;labelBorderColor=none;horizontal=1;textDirection=ltr;entryX=0.5;entryY=0;entryDx=0;entryDy=0;entryPerimeter=0;exitX=0.5;exitY=1;exitDx=0;exitDy=0;" parent="1" source="qdz_EZVD8mXz1i7pljkY-183" target="qdz_EZVD8mXz1i7pljkY-184" edge="1">
          <mxGeometry width="50" height="50" relative="1" as="geometry">
            <mxPoint x="295.39" y="576.25" as="sourcePoint" />
            <mxPoint x="295.5" y="594.25" as="targetPoint" />
          </mxGeometry>
        </mxCell>
        <mxCell id="qdz_EZVD8mXz1i7pljkY-186" value="" style="endArrow=classic;html=1;rounded=0;fontFamily=Source Code Pro, DejaVu Sans Mono, Ubuntu Mono, Anonymous Pro, Droid Sans Mono, Menlo, Monaco, Consolas, Inconsolata, Courier, monospace, PingFang SC, Microsoft YaHei, sans-serif;fontSize=16;fontColor=default;labelBorderColor=none;horizontal=1;textDirection=ltr;entryX=0.5;entryY=1;entryDx=0;entryDy=0;exitX=0.5;exitY=1;exitDx=0;exitDy=0;exitPerimeter=0;" parent="1" source="qdz_EZVD8mXz1i7pljkY-184" target="qdz_EZVD8mXz1i7pljkY-181" edge="1">
          <mxGeometry width="50" height="50" relative="1" as="geometry">
            <mxPoint x="295.39" y="615.25" as="sourcePoint" />
            <mxPoint x="295.5" y="633.25" as="targetPoint" />
          </mxGeometry>
        </mxCell>
        <mxCell id="qdz_EZVD8mXz1i7pljkY-234" value="&lt;font&gt;&lt;span style=&quot;font-size: 16px;&quot;&gt;Left Shift&lt;/span&gt;&lt;/font&gt;" style="rounded=0;whiteSpace=wrap;html=1;textShadow=0;fillColor=#dae8fc;strokeColor=#6c8ebf;fontFamily=Source Code Pro, DejaVu Sans Mono, Ubuntu Mono, Anonymous Pro, Droid Sans Mono, Menlo, Monaco, Consolas, Inconsolata, Courier, monospace, PingFang SC, Microsoft YaHei, sans-serif;" parent="1" vertex="1">
          <mxGeometry x="526" y="513" width="100" height="20" as="geometry" />
        </mxCell>
        <mxCell id="qdz_EZVD8mXz1i7pljkY-235" value="&lt;font&gt;&lt;span style=&quot;font-size: 16px;&quot;&gt;Left Shift&lt;/span&gt;&lt;/font&gt;" style="rounded=0;whiteSpace=wrap;html=1;textShadow=0;fillColor=#dae8fc;strokeColor=#6c8ebf;fontFamily=Source Code Pro, DejaVu Sans Mono, Ubuntu Mono, Anonymous Pro, Droid Sans Mono, Menlo, Monaco, Consolas, Inconsolata, Courier, monospace, PingFang SC, Microsoft YaHei, sans-serif;" parent="1" vertex="1">
          <mxGeometry x="646" y="513" width="100" height="20" as="geometry" />
        </mxCell>
        <mxCell id="qdz_EZVD8mXz1i7pljkY-236" value="" style="endArrow=classic;html=1;rounded=0;exitX=0.5;exitY=1;exitDx=0;exitDy=0;entryX=0.5;entryY=0;entryDx=0;entryDy=0;fontFamily=Source Code Pro, DejaVu Sans Mono, Ubuntu Mono, Anonymous Pro, Droid Sans Mono, Menlo, Monaco, Consolas, Inconsolata, Courier, monospace, PingFang SC, Microsoft YaHei, sans-serif;" parent="1" source="qdz_EZVD8mXz1i7pljkY-234" target="qdz_EZVD8mXz1i7pljkY-239" edge="1">
          <mxGeometry width="50" height="50" relative="1" as="geometry">
            <mxPoint x="576" y="539" as="sourcePoint" />
            <mxPoint x="576" y="559" as="targetPoint" />
          </mxGeometry>
        </mxCell>
        <mxCell id="qdz_EZVD8mXz1i7pljkY-237" value="" style="endArrow=classic;html=1;rounded=0;exitX=0.5;exitY=1;exitDx=0;exitDy=0;entryX=0.5;entryY=0;entryDx=0;entryDy=0;fontFamily=Source Code Pro, DejaVu Sans Mono, Ubuntu Mono, Anonymous Pro, Droid Sans Mono, Menlo, Monaco, Consolas, Inconsolata, Courier, monospace, PingFang SC, Microsoft YaHei, sans-serif;" parent="1" source="qdz_EZVD8mXz1i7pljkY-235" target="qdz_EZVD8mXz1i7pljkY-238" edge="1">
          <mxGeometry width="50" height="50" relative="1" as="geometry">
            <mxPoint x="695.79" y="539" as="sourcePoint" />
            <mxPoint x="695.79" y="559" as="targetPoint" />
          </mxGeometry>
        </mxCell>
        <mxCell id="qdz_EZVD8mXz1i7pljkY-238" value="&lt;font style=&quot;font-size: 16px;&quot;&gt;D&lt;sub style=&quot;&quot;&gt;2&lt;/sub&gt;&lt;/font&gt;&lt;span style=&quot;font-size: 16px;&quot;&gt;&amp;nbsp;(28)&lt;/span&gt;" style="rounded=0;whiteSpace=wrap;html=1;fontFamily=Source Code Pro, DejaVu Sans Mono, Ubuntu Mono, Anonymous Pro, Droid Sans Mono, Menlo, Monaco, Consolas, Inconsolata, Courier, monospace, PingFang SC, Microsoft YaHei, sans-serif;" parent="1" vertex="1">
          <mxGeometry x="656" y="547" width="80" height="30" as="geometry" />
        </mxCell>
        <mxCell id="qdz_EZVD8mXz1i7pljkY-239" value="&lt;font style=&quot;font-size: 16px;&quot;&gt;C&lt;sub&gt;2&lt;/sub&gt;&lt;/font&gt;&lt;span style=&quot;font-size: 16px;&quot;&gt;&amp;nbsp;(28)&lt;/span&gt;" style="rounded=0;whiteSpace=wrap;html=1;fontFamily=Source Code Pro, DejaVu Sans Mono, Ubuntu Mono, Anonymous Pro, Droid Sans Mono, Menlo, Monaco, Consolas, Inconsolata, Courier, monospace, PingFang SC, Microsoft YaHei, sans-serif;" parent="1" vertex="1">
          <mxGeometry x="536" y="547" width="80" height="30" as="geometry" />
        </mxCell>
        <mxCell id="qdz_EZVD8mXz1i7pljkY-240" value="" style="endArrow=classic;html=1;rounded=0;exitX=0.5;exitY=1;exitDx=0;exitDy=0;entryX=0.5;entryY=0;entryDx=0;entryDy=0;fontFamily=Source Code Pro, DejaVu Sans Mono, Ubuntu Mono, Anonymous Pro, Droid Sans Mono, Menlo, Monaco, Consolas, Inconsolata, Courier, monospace, PingFang SC, Microsoft YaHei, sans-serif;" parent="1" source="qdz_EZVD8mXz1i7pljkY-239" edge="1">
          <mxGeometry width="50" height="50" relative="1" as="geometry">
            <mxPoint x="496" y="719" as="sourcePoint" />
            <mxPoint x="576" y="700" as="targetPoint" />
          </mxGeometry>
        </mxCell>
        <mxCell id="qdz_EZVD8mXz1i7pljkY-241" value="" style="endArrow=classic;html=1;rounded=0;exitX=0.5;exitY=1;exitDx=0;exitDy=0;entryX=0.5;entryY=0;entryDx=0;entryDy=0;fontFamily=Source Code Pro, DejaVu Sans Mono, Ubuntu Mono, Anonymous Pro, Droid Sans Mono, Menlo, Monaco, Consolas, Inconsolata, Courier, monospace, PingFang SC, Microsoft YaHei, sans-serif;" parent="1" source="qdz_EZVD8mXz1i7pljkY-238" edge="1">
          <mxGeometry width="50" height="50" relative="1" as="geometry">
            <mxPoint x="696" y="589" as="sourcePoint" />
            <mxPoint x="696" y="700" as="targetPoint" />
          </mxGeometry>
        </mxCell>
        <mxCell id="qdz_EZVD8mXz1i7pljkY-242" value="" style="endArrow=classic;html=1;rounded=0;edgeStyle=elbowEdgeStyle;elbow=vertical;entryX=0.704;entryY=1.002;entryDx=0;entryDy=0;entryPerimeter=0;fontFamily=Source Code Pro, DejaVu Sans Mono, Ubuntu Mono, Anonymous Pro, Droid Sans Mono, Menlo, Monaco, Consolas, Inconsolata, Courier, monospace, PingFang SC, Microsoft YaHei, sans-serif;" parent="1" edge="1">
          <mxGeometry width="50" height="50" relative="1" as="geometry">
            <mxPoint x="576" y="588" as="sourcePoint" />
            <mxPoint x="519.5680000000001" y="588.1479999999999" as="targetPoint" />
          </mxGeometry>
        </mxCell>
        <mxCell id="qdz_EZVD8mXz1i7pljkY-243" value="" style="endArrow=classic;html=1;rounded=0;elbow=vertical;entryX=0.275;entryY=1.002;entryDx=0;entryDy=0;entryPerimeter=0;fontFamily=Source Code Pro, DejaVu Sans Mono, Ubuntu Mono, Anonymous Pro, Droid Sans Mono, Menlo, Monaco, Consolas, Inconsolata, Courier, monospace, PingFang SC, Microsoft YaHei, sans-serif;" parent="1" edge="1">
          <mxGeometry width="50" height="50" relative="1" as="geometry">
            <mxPoint x="696" y="615" as="sourcePoint" />
            <mxPoint x="519.5680000000001" y="615.175" as="targetPoint" />
          </mxGeometry>
        </mxCell>
        <mxCell id="qdz_EZVD8mXz1i7pljkY-245" value="&lt;font style=&quot;font-size: 16px;&quot;&gt;PC2&lt;/font&gt;" style="text;html=1;align=center;verticalAlign=middle;whiteSpace=wrap;rounded=0;fontFamily=Source Code Pro, DejaVu Sans Mono, Ubuntu Mono, Anonymous Pro, Droid Sans Mono, Menlo, Monaco, Consolas, Inconsolata, Courier, monospace, PingFang SC, Microsoft YaHei, sans-serif;" parent="1" vertex="1">
          <mxGeometry x="487.5" y="586" width="30" height="30" as="geometry" />
        </mxCell>
        <mxCell id="qdz_EZVD8mXz1i7pljkY-247" value="" style="endArrow=none;html=1;rounded=0;fontFamily=Source Code Pro, DejaVu Sans Mono, Ubuntu Mono, Anonymous Pro, Droid Sans Mono, Menlo, Monaco, Consolas, Inconsolata, Courier, monospace, PingFang SC, Microsoft YaHei, sans-serif;fontSize=16;fontColor=default;labelBorderColor=none;horizontal=1;textDirection=ltr;dashed=1;dashPattern=8 8;" parent="1" edge="1">
          <mxGeometry width="50" height="50" relative="1" as="geometry">
            <mxPoint x="173" y="758" as="sourcePoint" />
            <mxPoint x="173" y="691" as="targetPoint" />
          </mxGeometry>
        </mxCell>
        <mxCell id="qdz_EZVD8mXz1i7pljkY-248" value="" style="endArrow=none;html=1;rounded=0;fontFamily=Source Code Pro, DejaVu Sans Mono, Ubuntu Mono, Anonymous Pro, Droid Sans Mono, Menlo, Monaco, Consolas, Inconsolata, Courier, monospace, PingFang SC, Microsoft YaHei, sans-serif;fontSize=16;fontColor=default;labelBorderColor=none;horizontal=1;textDirection=ltr;dashed=1;dashPattern=8 8;" parent="1" edge="1">
          <mxGeometry width="50" height="50" relative="1" as="geometry">
            <mxPoint x="295" y="762" as="sourcePoint" />
            <mxPoint x="295.32" y="691" as="targetPoint" />
          </mxGeometry>
        </mxCell>
        <mxCell id="qdz_EZVD8mXz1i7pljkY-249" value="" style="endArrow=none;html=1;rounded=0;fontFamily=Source Code Pro, DejaVu Sans Mono, Ubuntu Mono, Anonymous Pro, Droid Sans Mono, Menlo, Monaco, Consolas, Inconsolata, Courier, monospace, PingFang SC, Microsoft YaHei, sans-serif;fontSize=16;fontColor=default;labelBorderColor=none;horizontal=1;textDirection=ltr;dashed=1;dashPattern=8 8;" parent="1" edge="1">
          <mxGeometry width="50" height="50" relative="1" as="geometry">
            <mxPoint x="576" y="761" as="sourcePoint" />
            <mxPoint x="576" y="704" as="targetPoint" />
          </mxGeometry>
        </mxCell>
        <mxCell id="qdz_EZVD8mXz1i7pljkY-250" value="" style="endArrow=none;html=1;rounded=0;fontFamily=Source Code Pro, DejaVu Sans Mono, Ubuntu Mono, Anonymous Pro, Droid Sans Mono, Menlo, Monaco, Consolas, Inconsolata, Courier, monospace, PingFang SC, Microsoft YaHei, sans-serif;fontSize=16;fontColor=default;labelBorderColor=none;horizontal=1;textDirection=ltr;dashed=1;dashPattern=8 8;" parent="1" edge="1">
          <mxGeometry width="50" height="50" relative="1" as="geometry">
            <mxPoint x="696" y="761" as="sourcePoint" />
            <mxPoint x="696" y="704" as="targetPoint" />
          </mxGeometry>
        </mxCell>
        <mxCell id="qdz_EZVD8mXz1i7pljkY-280" value="" style="ellipse;whiteSpace=wrap;html=1;aspect=fixed;fillColor=#d5e8d4;strokeColor=#82b366;fontFamily=Source Code Pro, DejaVu Sans Mono, Ubuntu Mono, Anonymous Pro, Droid Sans Mono, Menlo, Monaco, Consolas, Inconsolata, Courier, monospace, PingFang SC, Microsoft YaHei, sans-serif;" parent="1" vertex="1">
          <mxGeometry x="244.25" y="766.25" width="102" height="102" as="geometry" />
        </mxCell>
        <mxCell id="qdz_EZVD8mXz1i7pljkY-281" value="" style="endArrow=classic;html=1;rounded=0;fontFamily=Source Code Pro, DejaVu Sans Mono, Ubuntu Mono, Anonymous Pro, Droid Sans Mono, Menlo, Monaco, Consolas, Inconsolata, Courier, monospace, PingFang SC, Microsoft YaHei, sans-serif;" parent="1" edge="1">
          <mxGeometry width="50" height="50" relative="1" as="geometry">
            <mxPoint x="295" y="755" as="sourcePoint" />
            <mxPoint x="172.75" y="907" as="targetPoint" />
            <Array as="points">
              <mxPoint x="295" y="757" />
              <mxPoint x="272.75" y="757" />
              <mxPoint x="172.75" y="887" />
            </Array>
          </mxGeometry>
        </mxCell>
        <mxCell id="qdz_EZVD8mXz1i7pljkY-282" value="" style="endArrow=classic;html=1;rounded=0;entryX=-0.013;entryY=0.527;entryDx=0;entryDy=0;entryPerimeter=0;fontFamily=Source Code Pro, DejaVu Sans Mono, Ubuntu Mono, Anonymous Pro, Droid Sans Mono, Menlo, Monaco, Consolas, Inconsolata, Courier, monospace, PingFang SC, Microsoft YaHei, sans-serif;" parent="1" target="qdz_EZVD8mXz1i7pljkY-285" edge="1">
          <mxGeometry width="50" height="50" relative="1" as="geometry">
            <mxPoint x="173" y="757" as="sourcePoint" />
            <mxPoint x="285.5" y="882.5" as="targetPoint" />
            <Array as="points">
              <mxPoint x="272.75" y="885" />
            </Array>
          </mxGeometry>
        </mxCell>
        <mxCell id="qdz_EZVD8mXz1i7pljkY-283" value="" style="endArrow=classic;html=1;rounded=0;entryX=0.5;entryY=0;entryDx=0;entryDy=0;fontFamily=Source Code Pro, DejaVu Sans Mono, Ubuntu Mono, Anonymous Pro, Droid Sans Mono, Menlo, Monaco, Consolas, Inconsolata, Courier, monospace, PingFang SC, Microsoft YaHei, sans-serif;" parent="1" edge="1">
          <mxGeometry width="50" height="50" relative="1" as="geometry">
            <mxPoint x="295" y="762" as="sourcePoint" />
            <mxPoint x="295" y="774.5" as="targetPoint" />
          </mxGeometry>
        </mxCell>
        <mxCell id="qdz_EZVD8mXz1i7pljkY-284" value="" style="endArrow=classic;html=1;rounded=0;entryX=0.5;entryY=0;entryDx=0;entryDy=0;entryPerimeter=0;exitX=0.5;exitY=0;exitDx=0;exitDy=0;fontFamily=Source Code Pro, DejaVu Sans Mono, Ubuntu Mono, Anonymous Pro, Droid Sans Mono, Menlo, Monaco, Consolas, Inconsolata, Courier, monospace, PingFang SC, Microsoft YaHei, sans-serif;" parent="1" source="qdz_EZVD8mXz1i7pljkY-287" target="qdz_EZVD8mXz1i7pljkY-285" edge="1">
          <mxGeometry width="50" height="50" relative="1" as="geometry">
            <mxPoint x="295.75" y="865" as="sourcePoint" />
            <mxPoint x="295.5" y="889.5" as="targetPoint" />
          </mxGeometry>
        </mxCell>
        <mxCell id="qdz_EZVD8mXz1i7pljkY-285" value="" style="verticalLabelPosition=bottom;verticalAlign=top;html=1;shape=mxgraph.flowchart.or;fillColor=#dae8fc;strokeColor=#6c8ebf;fontFamily=Source Code Pro, DejaVu Sans Mono, Ubuntu Mono, Anonymous Pro, Droid Sans Mono, Menlo, Monaco, Consolas, Inconsolata, Courier, monospace, PingFang SC, Microsoft YaHei, sans-serif;" parent="1" vertex="1">
          <mxGeometry x="285.5" y="874.5" width="20" height="20" as="geometry" />
        </mxCell>
        <mxCell id="qdz_EZVD8mXz1i7pljkY-286" value="" style="endArrow=classic;html=1;rounded=0;exitX=0.5;exitY=1;exitDx=0;exitDy=0;exitPerimeter=0;fontFamily=Source Code Pro, DejaVu Sans Mono, Ubuntu Mono, Anonymous Pro, Droid Sans Mono, Menlo, Monaco, Consolas, Inconsolata, Courier, monospace, PingFang SC, Microsoft YaHei, sans-serif;" parent="1" source="qdz_EZVD8mXz1i7pljkY-285" edge="1">
          <mxGeometry width="50" height="50" relative="1" as="geometry">
            <mxPoint x="295.21" y="941.5" as="sourcePoint" />
            <mxPoint x="295.75" y="907" as="targetPoint" />
          </mxGeometry>
        </mxCell>
        <mxCell id="qdz_EZVD8mXz1i7pljkY-287" value="" style="shape=trapezoid;perimeter=trapezoidPerimeter;html=1;fixedSize=1;size=10;rotation=-180;horizontal=1;labelBorderColor=none;verticalAlign=middle;align=center;fontSize=16;whiteSpace=wrap;textDirection=ltr;fillColor=#dae8fc;strokeColor=#6c8ebf;fontFamily=Source Code Pro, DejaVu Sans Mono, Ubuntu Mono, Anonymous Pro, Droid Sans Mono, Menlo, Monaco, Consolas, Inconsolata, Courier, monospace, PingFang SC, Microsoft YaHei, sans-serif;" parent="1" vertex="1">
          <mxGeometry x="258" y="839.5" width="75" height="21" as="geometry" />
        </mxCell>
        <mxCell id="qdz_EZVD8mXz1i7pljkY-288" value="&lt;font style=&quot;font-size: 16px;&quot;&gt;S&lt;/font&gt;" style="text;html=1;align=center;verticalAlign=middle;whiteSpace=wrap;rounded=0;fontFamily=Source Code Pro, DejaVu Sans Mono, Ubuntu Mono, Anonymous Pro, Droid Sans Mono, Menlo, Monaco, Consolas, Inconsolata, Courier, monospace, PingFang SC, Microsoft YaHei, sans-serif;" parent="1" vertex="1">
          <mxGeometry x="282.75" y="842.25" width="25" height="15.5" as="geometry" />
        </mxCell>
        <mxCell id="qdz_EZVD8mXz1i7pljkY-289" value="&lt;font&gt;E&lt;/font&gt;" style="shape=trapezoid;perimeter=trapezoidPerimeter;html=1;fixedSize=1;size=10;rotation=0;horizontal=1;labelBorderColor=none;verticalAlign=middle;align=center;fontSize=16;whiteSpace=wrap;textDirection=ltr;fillColor=#dae8fc;strokeColor=#6c8ebf;fontFamily=Source Code Pro, DejaVu Sans Mono, Ubuntu Mono, Anonymous Pro, Droid Sans Mono, Menlo, Monaco, Consolas, Inconsolata, Courier, monospace, PingFang SC, Microsoft YaHei, sans-serif;" parent="1" vertex="1">
          <mxGeometry x="258" y="774.5" width="75" height="20" as="geometry" />
        </mxCell>
        <mxCell id="qdz_EZVD8mXz1i7pljkY-290" value="" style="verticalLabelPosition=bottom;verticalAlign=top;html=1;shape=mxgraph.flowchart.or;fillColor=#dae8fc;strokeColor=#6c8ebf;fontFamily=Source Code Pro, DejaVu Sans Mono, Ubuntu Mono, Anonymous Pro, Droid Sans Mono, Menlo, Monaco, Consolas, Inconsolata, Courier, monospace, PingFang SC, Microsoft YaHei, sans-serif;" parent="1" vertex="1">
          <mxGeometry x="285.5" y="806.5" width="20" height="21" as="geometry" />
        </mxCell>
        <mxCell id="qdz_EZVD8mXz1i7pljkY-291" value="" style="endArrow=classic;html=1;rounded=0;fontFamily=Source Code Pro, DejaVu Sans Mono, Ubuntu Mono, Anonymous Pro, Droid Sans Mono, Menlo, Monaco, Consolas, Inconsolata, Courier, monospace, PingFang SC, Microsoft YaHei, sans-serif;fontSize=16;fontColor=default;labelBorderColor=none;horizontal=1;textDirection=ltr;entryX=0.5;entryY=0;entryDx=0;entryDy=0;entryPerimeter=0;exitX=0.5;exitY=1;exitDx=0;exitDy=0;" parent="1" source="qdz_EZVD8mXz1i7pljkY-289" target="qdz_EZVD8mXz1i7pljkY-290" edge="1">
          <mxGeometry width="50" height="50" relative="1" as="geometry">
            <mxPoint x="295.39" y="791.5" as="sourcePoint" />
            <mxPoint x="295.5" y="809.5" as="targetPoint" />
          </mxGeometry>
        </mxCell>
        <mxCell id="qdz_EZVD8mXz1i7pljkY-292" value="" style="endArrow=classic;html=1;rounded=0;fontFamily=Source Code Pro, DejaVu Sans Mono, Ubuntu Mono, Anonymous Pro, Droid Sans Mono, Menlo, Monaco, Consolas, Inconsolata, Courier, monospace, PingFang SC, Microsoft YaHei, sans-serif;fontSize=16;fontColor=default;labelBorderColor=none;horizontal=1;textDirection=ltr;entryX=0.5;entryY=1;entryDx=0;entryDy=0;exitX=0.5;exitY=1;exitDx=0;exitDy=0;exitPerimeter=0;" parent="1" source="qdz_EZVD8mXz1i7pljkY-290" target="qdz_EZVD8mXz1i7pljkY-287" edge="1">
          <mxGeometry width="50" height="50" relative="1" as="geometry">
            <mxPoint x="295.39" y="830.5" as="sourcePoint" />
            <mxPoint x="295.5" y="848.5" as="targetPoint" />
          </mxGeometry>
        </mxCell>
        <mxCell id="qdz_EZVD8mXz1i7pljkY-294" value="" style="endArrow=classic;html=1;rounded=0;exitX=0.5;exitY=1;exitDx=0;exitDy=0;entryX=0.5;entryY=0;entryDx=0;entryDy=0;fontFamily=Source Code Pro, DejaVu Sans Mono, Ubuntu Mono, Anonymous Pro, Droid Sans Mono, Menlo, Monaco, Consolas, Inconsolata, Courier, monospace, PingFang SC, Microsoft YaHei, sans-serif;" parent="1" target="qdz_EZVD8mXz1i7pljkY-297" edge="1">
          <mxGeometry width="50" height="50" relative="1" as="geometry">
            <mxPoint x="576" y="748.25" as="sourcePoint" />
            <mxPoint x="576" y="774.25" as="targetPoint" />
          </mxGeometry>
        </mxCell>
        <mxCell id="qdz_EZVD8mXz1i7pljkY-295" value="" style="endArrow=classic;html=1;rounded=0;exitX=0.5;exitY=1;exitDx=0;exitDy=0;entryX=0.5;entryY=0;entryDx=0;entryDy=0;fontFamily=Source Code Pro, DejaVu Sans Mono, Ubuntu Mono, Anonymous Pro, Droid Sans Mono, Menlo, Monaco, Consolas, Inconsolata, Courier, monospace, PingFang SC, Microsoft YaHei, sans-serif;" parent="1" target="qdz_EZVD8mXz1i7pljkY-296" edge="1">
          <mxGeometry width="50" height="50" relative="1" as="geometry">
            <mxPoint x="696" y="748.25" as="sourcePoint" />
            <mxPoint x="695.79" y="774.25" as="targetPoint" />
          </mxGeometry>
        </mxCell>
        <mxCell id="qdz_EZVD8mXz1i7pljkY-296" value="&lt;font style=&quot;font-size: 16px;&quot;&gt;D&lt;sub style=&quot;&quot;&gt;2&lt;/sub&gt;&lt;/font&gt;&lt;span style=&quot;font-size: 16px;&quot;&gt;&amp;nbsp;(28)&lt;/span&gt;" style="rounded=0;whiteSpace=wrap;html=1;fontFamily=Source Code Pro, DejaVu Sans Mono, Ubuntu Mono, Anonymous Pro, Droid Sans Mono, Menlo, Monaco, Consolas, Inconsolata, Courier, monospace, PingFang SC, Microsoft YaHei, sans-serif;" parent="1" vertex="1">
          <mxGeometry x="656" y="762.25" width="80" height="30" as="geometry" />
        </mxCell>
        <mxCell id="qdz_EZVD8mXz1i7pljkY-297" value="&lt;font style=&quot;font-size: 16px;&quot;&gt;C&lt;sub&gt;2&lt;/sub&gt;&lt;/font&gt;&lt;span style=&quot;font-size: 16px;&quot;&gt;&amp;nbsp;(28)&lt;/span&gt;" style="rounded=0;whiteSpace=wrap;html=1;fontFamily=Source Code Pro, DejaVu Sans Mono, Ubuntu Mono, Anonymous Pro, Droid Sans Mono, Menlo, Monaco, Consolas, Inconsolata, Courier, monospace, PingFang SC, Microsoft YaHei, sans-serif;" parent="1" vertex="1">
          <mxGeometry x="536" y="762.25" width="80" height="30" as="geometry" />
        </mxCell>
        <mxCell id="qdz_EZVD8mXz1i7pljkY-298" value="" style="endArrow=classic;html=1;rounded=0;exitX=0.5;exitY=1;exitDx=0;exitDy=0;entryX=1;entryY=0;entryDx=0;entryDy=0;fontFamily=Source Code Pro, DejaVu Sans Mono, Ubuntu Mono, Anonymous Pro, Droid Sans Mono, Menlo, Monaco, Consolas, Inconsolata, Courier, monospace, PingFang SC, Microsoft YaHei, sans-serif;" parent="1" source="qdz_EZVD8mXz1i7pljkY-297" edge="1">
          <mxGeometry width="50" height="50" relative="1" as="geometry">
            <mxPoint x="496" y="934.25" as="sourcePoint" />
            <mxPoint x="519.5" y="801.25" as="targetPoint" />
            <Array as="points">
              <mxPoint x="576" y="801" />
            </Array>
          </mxGeometry>
        </mxCell>
        <mxCell id="qdz_EZVD8mXz1i7pljkY-299" value="" style="endArrow=classic;html=1;rounded=0;exitX=0.5;exitY=1;exitDx=0;exitDy=0;entryX=1;entryY=1;entryDx=0;entryDy=0;fontFamily=Source Code Pro, DejaVu Sans Mono, Ubuntu Mono, Anonymous Pro, Droid Sans Mono, Menlo, Monaco, Consolas, Inconsolata, Courier, monospace, PingFang SC, Microsoft YaHei, sans-serif;" parent="1" source="qdz_EZVD8mXz1i7pljkY-296" edge="1">
          <mxGeometry width="50" height="50" relative="1" as="geometry">
            <mxPoint x="696" y="804.25" as="sourcePoint" />
            <mxPoint x="519.5" y="831.25" as="targetPoint" />
            <Array as="points">
              <mxPoint x="696" y="831" />
            </Array>
          </mxGeometry>
        </mxCell>
        <mxCell id="qdz_EZVD8mXz1i7pljkY-305" value="&lt;font style=&quot;font-size: 16px;&quot;&gt;R&lt;sub style=&quot;&quot;&gt;16&lt;/sub&gt;&lt;/font&gt;&lt;span style=&quot;font-size: 16px;&quot;&gt;&amp;nbsp;(32)&lt;/span&gt;" style="rounded=0;whiteSpace=wrap;html=1;fontFamily=Source Code Pro, DejaVu Sans Mono, Ubuntu Mono, Anonymous Pro, Droid Sans Mono, Menlo, Monaco, Consolas, Inconsolata, Courier, monospace, PingFang SC, Microsoft YaHei, sans-serif;" parent="1" vertex="1">
          <mxGeometry x="253" y="907" width="80" height="30" as="geometry" />
        </mxCell>
        <mxCell id="qdz_EZVD8mXz1i7pljkY-306" value="&lt;font style=&quot;font-size: 16px;&quot;&gt;L&lt;sub&gt;16&lt;/sub&gt;&lt;/font&gt;&lt;span style=&quot;font-size: 16px;&quot;&gt;&amp;nbsp;(32)&lt;/span&gt;" style="rounded=0;whiteSpace=wrap;html=1;fontFamily=Source Code Pro, DejaVu Sans Mono, Ubuntu Mono, Anonymous Pro, Droid Sans Mono, Menlo, Monaco, Consolas, Inconsolata, Courier, monospace, PingFang SC, Microsoft YaHei, sans-serif;" parent="1" vertex="1">
          <mxGeometry x="133" y="907" width="80" height="30" as="geometry" />
        </mxCell>
        <mxCell id="qdz_EZVD8mXz1i7pljkY-307" value="" style="endArrow=classic;html=1;rounded=0;exitX=0.5;exitY=1;exitDx=0;exitDy=0;fontFamily=Source Code Pro, DejaVu Sans Mono, Ubuntu Mono, Anonymous Pro, Droid Sans Mono, Menlo, Monaco, Consolas, Inconsolata, Courier, monospace, PingFang SC, Microsoft YaHei, sans-serif;" parent="1" source="qdz_EZVD8mXz1i7pljkY-306" edge="1">
          <mxGeometry width="50" height="50" relative="1" as="geometry">
            <mxPoint x="192" y="1002" as="sourcePoint" />
            <mxPoint x="250" y="982" as="targetPoint" />
            <Array as="points">
              <mxPoint x="173" y="952" />
              <mxPoint x="250" y="962" />
            </Array>
          </mxGeometry>
        </mxCell>
        <mxCell id="qdz_EZVD8mXz1i7pljkY-308" value="" style="endArrow=classic;html=1;rounded=0;exitX=0.5;exitY=1;exitDx=0;exitDy=0;fontFamily=Source Code Pro, DejaVu Sans Mono, Ubuntu Mono, Anonymous Pro, Droid Sans Mono, Menlo, Monaco, Consolas, Inconsolata, Courier, monospace, PingFang SC, Microsoft YaHei, sans-serif;" parent="1" source="qdz_EZVD8mXz1i7pljkY-305" edge="1">
          <mxGeometry width="50" height="50" relative="1" as="geometry">
            <mxPoint x="230" y="1052" as="sourcePoint" />
            <mxPoint x="220" y="982" as="targetPoint" />
            <Array as="points">
              <mxPoint x="293" y="952" />
              <mxPoint x="220" y="962" />
            </Array>
          </mxGeometry>
        </mxCell>
        <mxCell id="qdz_EZVD8mXz1i7pljkY-312" style="edgeStyle=orthogonalEdgeStyle;rounded=0;orthogonalLoop=1;jettySize=auto;html=1;exitX=0.5;exitY=1;exitDx=0;exitDy=0;fontFamily=Source Code Pro, DejaVu Sans Mono, Ubuntu Mono, Anonymous Pro, Droid Sans Mono, Menlo, Monaco, Consolas, Inconsolata, Courier, monospace, PingFang SC, Microsoft YaHei, sans-serif;entryX=0.5;entryY=0;entryDx=0;entryDy=0;" parent="1" source="qdz_EZVD8mXz1i7pljkY-311" edge="1" target="qdz_EZVD8mXz1i7pljkY-313">
          <mxGeometry relative="1" as="geometry">
            <mxPoint x="235" y="1022" as="targetPoint" />
            <Array as="points" />
          </mxGeometry>
        </mxCell>
        <mxCell id="qdz_EZVD8mXz1i7pljkY-311" value="&lt;font&gt;&lt;span style=&quot;font-size: 16px;&quot;&gt;FP (IP&lt;sup&gt;-1&lt;/sup&gt;)&lt;/span&gt;&lt;/font&gt;" style="rounded=0;whiteSpace=wrap;html=1;textShadow=0;fillColor=#dae8fc;strokeColor=#6c8ebf;fontFamily=Source Code Pro, DejaVu Sans Mono, Ubuntu Mono, Anonymous Pro, Droid Sans Mono, Menlo, Monaco, Consolas, Inconsolata, Courier, monospace, PingFang SC, Microsoft YaHei, sans-serif;" parent="1" vertex="1">
          <mxGeometry x="190" y="982" width="90" height="30" as="geometry" />
        </mxCell>
        <mxCell id="qdz_EZVD8mXz1i7pljkY-313" value="&lt;font style=&quot;font-size: 16px;&quot;&gt;Output (64)&lt;/font&gt;" style="rounded=0;whiteSpace=wrap;html=1;fontFamily=Source Code Pro, DejaVu Sans Mono, Ubuntu Mono, Anonymous Pro, Droid Sans Mono, Menlo, Monaco, Consolas, Inconsolata, Courier, monospace, PingFang SC, Microsoft YaHei, sans-serif;" parent="1" vertex="1">
          <mxGeometry x="155" y="1032" width="160" height="29" as="geometry" />
        </mxCell>
        <mxCell id="FETZFHnWCQZqlO5JsZhI-1" value="&lt;span style=&quot;font-size: 16px;&quot;&gt;数据（长度）&lt;/span&gt;" style="rounded=0;whiteSpace=wrap;html=1;fontFamily=Source Code Pro, DejaVu Sans Mono, Ubuntu Mono, Anonymous Pro, Droid Sans Mono, Menlo, Monaco, Consolas, Inconsolata, Courier, monospace, PingFang SC, Microsoft YaHei, sans-serif;" vertex="1" parent="1">
          <mxGeometry x="230.5" y="32" width="130" height="30" as="geometry" />
        </mxCell>
        <mxCell id="FETZFHnWCQZqlO5JsZhI-2" value="&lt;font style=&quot;font-size: 16px;&quot;&gt;操作&lt;/font&gt;" style="rounded=0;whiteSpace=wrap;html=1;textShadow=0;fillColor=#dae8fc;strokeColor=#6c8ebf;fontFamily=Source Code Pro, DejaVu Sans Mono, Ubuntu Mono, Anonymous Pro, Droid Sans Mono, Menlo, Monaco, Consolas, Inconsolata, Courier, monospace, PingFang SC, Microsoft YaHei, sans-serif;" vertex="1" parent="1">
          <mxGeometry x="417.5" y="32" width="127" height="30" as="geometry" />
        </mxCell>
        <mxCell id="FETZFHnWCQZqlO5JsZhI-3" value="&lt;font style=&quot;font-size: 16px;&quot;&gt;K&lt;sub style=&quot;&quot;&gt;1&lt;/sub&gt;&lt;/font&gt;&lt;span style=&quot;font-size: 16px;&quot;&gt;(48)&lt;/span&gt;" style="rounded=0;whiteSpace=wrap;html=1;fontFamily=Source Code Pro, DejaVu Sans Mono, Ubuntu Mono, Anonymous Pro, Droid Sans Mono, Menlo, Monaco, Consolas, Inconsolata, Courier, monospace, PingFang SC, Microsoft YaHei, sans-serif;" vertex="1" parent="1">
          <mxGeometry x="367" y="396" width="67" height="32" as="geometry" />
        </mxCell>
        <mxCell id="FETZFHnWCQZqlO5JsZhI-5" style="edgeStyle=orthogonalEdgeStyle;rounded=0;orthogonalLoop=1;jettySize=auto;html=1;exitX=0;exitY=0.5;exitDx=0;exitDy=0;entryX=1;entryY=0.5;entryDx=0;entryDy=0;entryPerimeter=0;" edge="1" parent="1" source="FETZFHnWCQZqlO5JsZhI-3" target="qdz_EZVD8mXz1i7pljkY-148">
          <mxGeometry relative="1" as="geometry" />
        </mxCell>
        <mxCell id="FETZFHnWCQZqlO5JsZhI-14" value="&lt;font style=&quot;font-size: 16px;&quot;&gt;K&lt;sub style=&quot;&quot;&gt;2&lt;/sub&gt;&lt;/font&gt;&lt;span style=&quot;font-size: 16px;&quot;&gt;(48)&lt;/span&gt;" style="rounded=0;whiteSpace=wrap;html=1;fontFamily=Source Code Pro, DejaVu Sans Mono, Ubuntu Mono, Anonymous Pro, Droid Sans Mono, Menlo, Monaco, Consolas, Inconsolata, Courier, monospace, PingFang SC, Microsoft YaHei, sans-serif;" vertex="1" parent="1">
          <mxGeometry x="367" y="585.75" width="67" height="32" as="geometry" />
        </mxCell>
        <mxCell id="FETZFHnWCQZqlO5JsZhI-15" value="&lt;font style=&quot;font-size: 16px;&quot;&gt;K&lt;sub style=&quot;&quot;&gt;16&lt;/sub&gt;&lt;/font&gt;&lt;span style=&quot;font-size: 16px;&quot;&gt;(48)&lt;/span&gt;" style="rounded=0;whiteSpace=wrap;html=1;fontFamily=Source Code Pro, DejaVu Sans Mono, Ubuntu Mono, Anonymous Pro, Droid Sans Mono, Menlo, Monaco, Consolas, Inconsolata, Courier, monospace, PingFang SC, Microsoft YaHei, sans-serif;" vertex="1" parent="1">
          <mxGeometry x="367" y="801.25" width="67" height="32" as="geometry" />
        </mxCell>
        <mxCell id="FETZFHnWCQZqlO5JsZhI-16" style="edgeStyle=orthogonalEdgeStyle;rounded=0;orthogonalLoop=1;jettySize=auto;html=1;exitX=0;exitY=0.5;exitDx=0;exitDy=0;entryX=1;entryY=0.5;entryDx=0;entryDy=0;entryPerimeter=0;" edge="1" parent="1" source="FETZFHnWCQZqlO5JsZhI-15" target="qdz_EZVD8mXz1i7pljkY-290">
          <mxGeometry relative="1" as="geometry" />
        </mxCell>
        <mxCell id="FETZFHnWCQZqlO5JsZhI-17" style="edgeStyle=orthogonalEdgeStyle;rounded=0;orthogonalLoop=1;jettySize=auto;html=1;exitX=0;exitY=0.5;exitDx=0;exitDy=0;entryX=1;entryY=0.5;entryDx=0;entryDy=0;entryPerimeter=0;" edge="1" parent="1" source="FETZFHnWCQZqlO5JsZhI-14" target="qdz_EZVD8mXz1i7pljkY-184">
          <mxGeometry relative="1" as="geometry" />
        </mxCell>
        <mxCell id="FETZFHnWCQZqlO5JsZhI-24" style="edgeStyle=orthogonalEdgeStyle;rounded=0;orthogonalLoop=1;jettySize=auto;html=1;exitX=0.5;exitY=0;exitDx=0;exitDy=0;entryX=1;entryY=0.5;entryDx=0;entryDy=0;" edge="1" parent="1" source="FETZFHnWCQZqlO5JsZhI-22" target="FETZFHnWCQZqlO5JsZhI-15">
          <mxGeometry relative="1" as="geometry" />
        </mxCell>
        <mxCell id="FETZFHnWCQZqlO5JsZhI-22" value="" style="shape=trapezoid;perimeter=trapezoidPerimeter;whiteSpace=wrap;html=1;fixedSize=1;size=17.5;rotation=-90;fillColor=#dae8fc;strokeColor=#6c8ebf;fontFamily=Source Code Pro, DejaVu Sans Mono, Ubuntu Mono, Anonymous Pro, Droid Sans Mono, Menlo, Monaco, Consolas, Inconsolata, Courier, monospace, PingFang SC, Microsoft YaHei, sans-serif;" vertex="1" parent="1">
          <mxGeometry x="470.5" y="799.5" width="63" height="35" as="geometry" />
        </mxCell>
        <mxCell id="FETZFHnWCQZqlO5JsZhI-23" value="&lt;font style=&quot;font-size: 16px;&quot;&gt;PC2&lt;/font&gt;" style="text;html=1;align=center;verticalAlign=middle;whiteSpace=wrap;rounded=0;fontFamily=Source Code Pro, DejaVu Sans Mono, Ubuntu Mono, Anonymous Pro, Droid Sans Mono, Menlo, Monaco, Consolas, Inconsolata, Courier, monospace, PingFang SC, Microsoft YaHei, sans-serif;" vertex="1" parent="1">
          <mxGeometry x="487.5" y="801.25" width="30" height="30" as="geometry" />
        </mxCell>
      </root>
    </mxGraphModel>
  </diagram>
</mxfile>
